<!-- <div className="p-2 bg-gradient-to-r from-pink-500 to-purple-600 rounded-lg">
    <svg xmlns="http://www.w3.org/2000/svg" class="h-6 w-6 text-white" viewBox="0 0 24 24" stroke="#ffffff" stroke-width="2" stroke-linecap="round" stroke-linejoin="round" class="lucide lucide-sparkles-icon lucide-sparkles"><path d="M9.937 15.5A2 2 0 0 0 8.5 14.063l-6.135-1.582a.5.5 0 0 1 0-.962L8.5 9.936A2 2 0 0 0 9.937 8.5l1.582-6.135a.5.5 0 0 1 .963 0L14.063 8.5A2 2 0 0 0 15.5 9.937l6.135 1.581a.5.5 0 0 1 0 .964L15.5 14.063a2 2 0 0 0-1.437 1.437l-1.582 6.135a.5.5 0 0 1-.963 0z"/><path d="M20 3v4"/><path d="M22 5h-4"/><path d="M4 17v2"/><path d="M5 18H3"/></svg>
</div> -->

<!-- <svg xmlns="http://www.w3.org/2000/svg" className="h-4 w-4 text-white" 
width="24" height="24" 
viewBox="0 0 24 24" fill="none" stroke="#ffffff" 
stroke-width="2" stroke-linecap="round" stroke-linejoin="round" 
class="lucide lucide-sparkles-icon lucide-sparkles">
<path d="M9.937 15.5A2 2 0 0 0 8.5 14.063l-6.135-1.582a.5.5 0 0 1 0-.962L8.5 9.936A2 2 0 0 0 9.937 8.5l1.582-6.135a.5.5 0 0 1 .963 0L14.063 8.5A2 2 0 0 0 15.5 9.937l6.135 1.581a.5.5 0 0 1 0 .964L15.5 14.063a2 2 0 0 0-1.437 1.437l-1.582 6.135a.5.5 0 0 1-.963 0z"/>
<path d="M20 3v4"/><path d="M22 5h-4"/><path d="M4 17v2"/><path d="M5 18H3"/></svg> -->

<svg xmlns="http://www.w3.org/2000/svg" viewBox="0 0 24 24" 
    class="lucide lucide-sparkles-icon lucide-sparkles" fill="white" 
    stroke-width="2" stroke-linecap="round" stroke-linejoin="round" stroke="none">
  <rect width="24" height="24" fill="url(#grad)" />
  <defs>
    <linearGradient id="grad" x1="0" x2="1" y1="0" y2="0">
      <stop offset="0%" stop-color="#ec4899" />
      <stop offset="100%" stop-color="#8b5cf6" />
    </linearGradient>
  </defs>
  <!-- original Sparkles path below -->
  <path d="M9.937 15.5A2 2 0 0 0 8.5 14.063l-6.135-1.582a.5.5 0 0 1 0-.962L8.5 9.936A2 2 0 0 0 9.937 8.5l1.582-6.135a.5.5 0 0 1 .963 0L14.063 8.5A2 2 0 0 0 15.5 9.937l6.135 1.581a.5.5 0 0 1 0 .964L15.5 14.063a2 2 0 0 0-1.437 1.437l-1.582 6.135a.5.5 0 0 1-.963 0z"/>
  <path d="M20 3v4"/><path d="M22 5h-4"/><path d="M4 17v2"/><path d="M5 18H3" fill="white"/>
</svg>
